<?xml version="1.0" encoding="iso-8859-1"?>
<!-- Generator: Adobe Illustrator 19.0.0, SVG Export Plug-In . SVG Version: 6.00 Build 0)  -->
<svg version="1.1" id="Capa_1" xmlns="http://www.w3.org/2000/svg" xmlns:xlink="http://www.w3.org/1999/xlink" x="0px" y="0px"
	 viewBox="0 0 448 448" style="enable-background:new 0 0 448 448;" xml:space="preserve">
<path style="fill:#9F2BFB;" d="M432,320h-16V80c0-8.8-7.2-16-16-16H48c-8.8,0-16,7.2-16,16v240H16c-8.8,0-16,7.2-16,16v32
	c0,8.8,7.2,16,16,16h416c8.8,0,16-7.2,16-16v-32C448,327.2,440.8,320,432,320z"/>
<path style="fill:#E7C9FF;" d="M32,320V80c0-8.8,7.2-16,16-16h352c8.8,0,16,7.2,16,16v240"/>
<polygon style="fill:#F3E4FF;" points="256,96 384,96 384,288 64,288 64,96 "/>
<rect x="128" y="320" style="fill:#7720BC;" width="192" height="32"/>
<g>
</g>
<g>
</g>
<g>
</g>
<g>
</g>
<g>
</g>
<g>
</g>
<g>
</g>
<g>
</g>
<g>
</g>
<g>
</g>
<g>
</g>
<g>
</g>
<g>
</g>
<g>
</g>
<g>
</g>
</svg>
